<svg width="205" height="74" viewBox="0 0 205 74" fill="none" xmlns="http://www.w3.org/2000/svg">
<rect width="205" height="74" rx="10.4131" fill="white"/>
<path d="M14.8776 23V12.9025H17.0125V17.0687H21.3463V12.9025H23.4763V23H21.3463V18.8289H17.0125V23H14.8776ZM28.2022 23.1479C27.4363 23.1479 26.774 22.9852 26.2152 22.6598C25.6597 22.3311 25.2308 21.8742 24.9284 21.2891C24.626 20.7008 24.4748 20.0187 24.4748 19.243C24.4748 18.4607 24.626 17.777 24.9284 17.192C25.2308 16.6036 25.6597 16.1467 26.2152 15.8213C26.774 15.4926 27.4363 15.3283 28.2022 15.3283C28.968 15.3283 29.6287 15.4926 30.1842 15.8213C30.743 16.1467 31.1736 16.6036 31.476 17.192C31.7784 17.777 31.9296 18.4607 31.9296 19.243C31.9296 20.0187 31.7784 20.7008 31.476 21.2891C31.1736 21.8742 30.743 22.3311 30.1842 22.6598C29.6287 22.9852 28.968 23.1479 28.2022 23.1479ZM28.2121 21.5209C28.5605 21.5209 28.8514 21.4223 29.0847 21.225C29.3181 21.0245 29.494 20.7517 29.6123 20.4066C29.7339 20.0615 29.7947 19.6687 29.7947 19.2282C29.7947 18.7878 29.7339 18.395 29.6123 18.0499C29.494 17.7047 29.3181 17.4319 29.0847 17.2314C28.8514 17.0309 28.5605 16.9306 28.2121 16.9306C27.8603 16.9306 27.5645 17.0309 27.3246 17.2314C27.0879 17.4319 26.9088 17.7047 26.7872 18.0499C26.6688 18.395 26.6097 18.7878 26.6097 19.2282C26.6097 19.6687 26.6688 20.0615 26.7872 20.4066C26.9088 20.7517 27.0879 21.0245 27.3246 21.225C27.5645 21.4223 27.8603 21.5209 28.2121 21.5209ZM37.7353 19.7755V15.4269H39.8356V23H37.8191V21.6244H37.7402C37.5693 22.0681 37.285 22.4248 36.8872 22.6943C36.4928 22.9638 36.0113 23.0986 35.4426 23.0986C34.9364 23.0986 34.491 22.9836 34.1065 22.7535C33.7219 22.5234 33.4211 22.1963 33.2042 21.7723C32.9906 21.3483 32.8821 20.8405 32.8788 20.2488V15.4269H34.9792V19.8741C34.9824 20.3211 35.1024 20.6745 35.3391 20.9342C35.5757 21.1938 35.8929 21.3237 36.2907 21.3237C36.5437 21.3237 36.7804 21.2661 37.0006 21.1511C37.2209 21.0328 37.3984 20.8586 37.5331 20.6285C37.6712 20.3984 37.7386 20.1141 37.7353 19.7755ZM47.4002 17.5864L45.4774 17.7047C45.4445 17.5404 45.3738 17.3925 45.2654 17.261C45.1569 17.1262 45.0139 17.0194 44.8364 16.9405C44.6622 16.8583 44.4535 16.8172 44.2102 16.8172C43.8848 16.8172 43.6104 16.8863 43.3869 17.0243C43.1634 17.1591 43.0516 17.3399 43.0516 17.5667C43.0516 17.7475 43.1239 17.9003 43.2685 18.0252C43.4132 18.1501 43.6613 18.2504 44.013 18.326L45.3837 18.6021C46.12 18.7533 46.6689 18.9965 47.0304 19.3318C47.392 19.667 47.5728 20.1075 47.5728 20.6531C47.5728 21.1494 47.4265 21.585 47.134 21.9597C46.8447 22.3344 46.447 22.6269 45.9408 22.8373C45.4379 23.0444 44.8578 23.1479 44.2004 23.1479C43.1979 23.1479 42.3991 22.9392 41.8042 22.5217C41.2125 22.101 40.8658 21.5291 40.7639 20.806L42.8297 20.6975C42.8922 21.0032 43.0434 21.2366 43.2833 21.3976C43.5233 21.5554 43.8306 21.6343 44.2053 21.6343C44.5735 21.6343 44.8693 21.5636 45.0928 21.4223C45.3196 21.2776 45.4346 21.0919 45.4379 20.8651C45.4346 20.6745 45.3541 20.5184 45.1963 20.3967C45.0386 20.2718 44.7953 20.1765 44.4666 20.1108L43.1551 19.8495C42.4156 19.7015 41.865 19.4452 41.5034 19.0803C41.1452 18.7155 40.966 18.2504 40.966 17.685C40.966 17.1985 41.0975 16.7794 41.3605 16.4277C41.6267 16.076 41.9998 15.8049 42.4797 15.6142C42.9628 15.4236 43.5282 15.3283 44.1757 15.3283C45.1322 15.3283 45.8849 15.5304 46.4339 15.9347C46.9861 16.339 47.3082 16.8896 47.4002 17.5864ZM51.9302 23.1479C51.1511 23.1479 50.4806 22.9901 49.9185 22.6746C49.3598 22.3558 48.9292 21.9054 48.6268 21.3237C48.3244 20.7386 48.1732 20.0467 48.1732 19.2479C48.1732 18.4689 48.3244 17.7853 48.6268 17.1969C48.9292 16.6085 49.3548 16.15 49.9038 15.8213C50.456 15.4926 51.1035 15.3283 51.8463 15.3283C52.346 15.3283 52.8111 15.4088 53.2416 15.5698C53.6755 15.7276 54.0535 15.9659 54.3756 16.2848C54.7011 16.6036 54.9542 17.0046 55.1349 17.4878C55.3157 17.9677 55.4061 18.5297 55.4061 19.174V19.7508H49.0113V18.4492H53.429C53.429 18.1468 53.3633 17.8789 53.2318 17.6456C53.1003 17.4122 52.9179 17.2298 52.6845 17.0983C52.4544 16.9635 52.1865 16.8961 51.8809 16.8961C51.562 16.8961 51.2793 16.9701 51.0328 17.118C50.7896 17.2626 50.5989 17.4582 50.4609 17.7047C50.3228 17.948 50.2522 18.2191 50.2489 18.5182V19.7558C50.2489 20.1305 50.3179 20.4543 50.456 20.7271C50.5973 20.9999 50.7962 21.2103 51.0525 21.3582C51.3089 21.5061 51.613 21.58 51.9647 21.58C52.198 21.58 52.4117 21.5472 52.6056 21.4814C52.7996 21.4157 52.9655 21.3171 53.1036 21.1856C53.2416 21.0541 53.3468 20.8931 53.4191 20.7024L55.3617 20.8306C55.2631 21.2974 55.061 21.7049 54.7553 22.0534C54.4529 22.3985 54.0617 22.668 53.5818 22.8619C53.1052 23.0526 52.5547 23.1479 51.9302 23.1479ZM56.3997 12.9025H59.0325L61.8133 19.6868H61.9316L64.7124 12.9025H67.3452V23H65.2745V16.4277H65.1906L62.5775 22.9507H61.1674L58.5543 16.4031H58.4705V23H56.3997V12.9025ZM72.0699 23.1479C71.304 23.1479 70.6417 22.9852 70.0829 22.6598C69.5275 22.3311 69.0985 21.8742 68.7961 21.2891C68.4937 20.7008 68.3425 20.0187 68.3425 19.243C68.3425 18.4607 68.4937 17.777 68.7961 17.192C69.0985 16.6036 69.5275 16.1467 70.0829 15.8213C70.6417 15.4926 71.304 15.3283 72.0699 15.3283C72.8358 15.3283 73.4964 15.4926 74.0519 15.8213C74.6107 16.1467 75.0413 16.6036 75.3437 17.192C75.6461 17.777 75.7973 18.4607 75.7973 19.243C75.7973 20.0187 75.6461 20.7008 75.3437 21.2891C75.0413 21.8742 74.6107 22.3311 74.0519 22.6598C73.4964 22.9852 72.8358 23.1479 72.0699 23.1479ZM72.0798 21.5209C72.4282 21.5209 72.7191 21.4223 72.9525 21.225C73.1858 21.0245 73.3617 20.7517 73.48 20.4066C73.6016 20.0615 73.6624 19.6687 73.6624 19.2282C73.6624 18.7878 73.6016 18.395 73.48 18.0499C73.3617 17.7047 73.1858 17.4319 72.9525 17.2314C72.7191 17.0309 72.4282 16.9306 72.0798 16.9306C71.7281 16.9306 71.4322 17.0309 71.1923 17.2314C70.9556 17.4319 70.7765 17.7047 70.6549 18.0499C70.5365 18.395 70.4774 18.7878 70.4774 19.2282C70.4774 19.6687 70.5365 20.0615 70.6549 20.4066C70.7765 20.7517 70.9556 21.0245 71.1923 21.225C71.4322 21.4223 71.7281 21.5209 72.0798 21.5209ZM78.8469 18.6218V23H76.7465V15.4269H78.7483V16.763H78.837C79.0047 16.3226 79.2857 15.9741 79.6801 15.7178C80.0746 15.4581 80.5528 15.3283 81.1149 15.3283C81.6408 15.3283 82.0993 15.4433 82.4905 15.6734C82.8816 15.9035 83.1857 16.2322 83.4026 16.6595C83.6195 17.0835 83.728 17.5897 83.728 18.178V23H81.6276V18.5528C81.6309 18.0893 81.5126 17.7277 81.2726 17.4681C81.0327 17.2051 80.7024 17.0736 80.2816 17.0736C79.999 17.0736 79.7491 17.1344 79.5322 17.2561C79.3186 17.3777 79.1509 17.5552 79.0293 17.7885C78.911 18.0186 78.8502 18.2964 78.8469 18.6218ZM88.4182 23.1479C87.6392 23.1479 86.9686 22.9901 86.4065 22.6746C85.8478 22.3558 85.4172 21.9054 85.1148 21.3237C84.8124 20.7386 84.6612 20.0467 84.6612 19.2479C84.6612 18.4689 84.8124 17.7853 85.1148 17.1969C85.4172 16.6085 85.8428 16.15 86.3918 15.8213C86.944 15.4926 87.5915 15.3283 88.3343 15.3283C88.834 15.3283 89.2991 15.4088 89.7297 15.5698C90.1635 15.7276 90.5415 15.9659 90.8637 16.2848C91.1891 16.6036 91.4422 17.0046 91.6229 17.4878C91.8037 17.9677 91.8941 18.5297 91.8941 19.174V19.7508H85.4994V18.4492H89.917C89.917 18.1468 89.8513 17.8789 89.7198 17.6456C89.5883 17.4122 89.4059 17.2298 89.1725 17.0983C88.9424 16.9635 88.6745 16.8961 88.3689 16.8961C88.05 16.8961 87.7673 16.9701 87.5208 17.118C87.2776 17.2626 87.0869 17.4582 86.9489 17.7047C86.8108 17.948 86.7402 18.2191 86.7369 18.5182V19.7558C86.7369 20.1305 86.8059 20.4543 86.944 20.7271C87.0853 20.9999 87.2842 21.2103 87.5405 21.3582C87.7969 21.5061 88.101 21.58 88.4527 21.58C88.686 21.58 88.8997 21.5472 89.0936 21.4814C89.2876 21.4157 89.4536 21.3171 89.5916 21.1856C89.7297 21.0541 89.8348 20.8931 89.9072 20.7024L91.8497 20.8306C91.7511 21.2974 91.549 21.7049 91.2433 22.0534C90.9409 22.3985 90.5498 22.668 90.0699 22.8619C89.5932 23.0526 89.0427 23.1479 88.4182 23.1479ZM93.9416 25.8399C93.6753 25.8399 93.4255 25.8186 93.1921 25.7758C92.9621 25.7364 92.7714 25.6854 92.6202 25.623L93.0935 24.0551C93.3401 24.1307 93.5619 24.1718 93.7591 24.1784C93.9596 24.1849 94.1322 24.1389 94.2768 24.0403C94.4247 23.9417 94.5447 23.7741 94.6368 23.5374L94.76 23.2169L92.0434 15.4269H94.2522L95.8201 20.9884H95.8989L97.4816 15.4269H99.7052L96.7618 23.8185C96.6204 24.226 96.4281 24.581 96.1849 24.8834C95.945 25.1891 95.6409 25.4241 95.2728 25.5885C94.9046 25.7561 94.4609 25.8399 93.9416 25.8399Z" fill="#FF4E00"/>
<path d="M25.8466 37.6136V38.75H14.2557V37.6136H25.8466ZM25.8466 40.0682V41.2045H14.2557V40.0682H25.8466ZM24.9205 33.3636V45H22.7955L17.7386 37.6761H17.6477V45H15.1932V33.3636H17.3466L22.375 40.6818H22.4716V33.3636H24.9205ZM30.8226 45.1591C30.0195 45.1591 29.3036 45.0114 28.6748 44.7159C28.0498 44.4205 27.5536 44.0133 27.1862 43.4943C26.8188 42.9754 26.6275 42.3807 26.6123 41.7102H28.9987C29.0252 42.161 29.2146 42.5265 29.5669 42.8068C29.9191 43.0871 30.3377 43.2273 30.8226 43.2273C31.2089 43.2273 31.5498 43.142 31.8453 42.9716C32.1445 42.7973 32.3775 42.5568 32.5441 42.25C32.7146 41.9394 32.7998 41.5833 32.7998 41.1818C32.7998 40.7727 32.7127 40.4129 32.5385 40.1023C32.368 39.7917 32.1313 39.5492 31.8282 39.375C31.5252 39.2008 31.1786 39.1117 30.7885 39.108C30.4476 39.108 30.1161 39.178 29.7941 39.3182C29.476 39.4583 29.2279 39.6496 29.0498 39.892L26.8623 39.5L27.4135 33.3636H34.5271V35.375H29.4419L29.1407 38.2898H29.2089C29.4135 38.0019 29.7222 37.7633 30.1351 37.5739C30.5479 37.3845 31.0101 37.2898 31.5214 37.2898C32.2222 37.2898 32.8472 37.4545 33.3964 37.7841C33.9457 38.1136 34.3794 38.5663 34.6976 39.142C35.0157 39.714 35.1729 40.3731 35.1691 41.1193C35.1729 41.9034 34.9911 42.6004 34.6237 43.2102C34.2601 43.8163 33.7506 44.2936 33.0953 44.642C32.4438 44.9867 31.6862 45.1591 30.8226 45.1591ZM38.6835 43.4091L38.621 44.0341C38.5717 44.5341 38.477 45.0322 38.3369 45.5284C38.2005 46.0284 38.0566 46.4811 37.9051 46.8864C37.7573 47.2917 37.638 47.6098 37.5471 47.8409H35.9789C36.0357 47.6174 36.1134 47.3049 36.2119 46.9034C36.3104 46.5057 36.4032 46.0587 36.4903 45.5625C36.5774 45.0663 36.6323 44.5606 36.6551 44.0455L36.6835 43.4091H38.6835ZM40.4165 45L45.2404 35.4545V35.375H39.6211V33.3636H47.7859V35.4034L42.9563 45H40.4165ZM47.8783 42.9545V41.017L52.7363 33.3636H54.4067V36.0455H53.4181L50.3556 40.892V40.983H57.259V42.9545H47.8783ZM53.4635 45V42.3636L53.509 41.5057V33.3636H55.8158V45H53.4635ZM62.6682 45.1591C61.8652 45.1591 61.1492 45.0114 60.5205 44.7159C59.8955 44.4205 59.3992 44.0133 59.0318 43.4943C58.6644 42.9754 58.4731 42.3807 58.458 41.7102H60.8443C60.8708 42.161 61.0602 42.5265 61.4125 42.8068C61.7648 43.0871 62.1833 43.2273 62.6682 43.2273C63.0545 43.2273 63.3955 43.142 63.6909 42.9716C63.9902 42.7973 64.2231 42.5568 64.3898 42.25C64.5602 41.9394 64.6455 41.5833 64.6455 41.1818C64.6455 40.7727 64.5583 40.4129 64.3841 40.1023C64.2136 39.7917 63.9769 39.5492 63.6739 39.375C63.3708 39.2008 63.0242 39.1117 62.6341 39.108C62.2932 39.108 61.9617 39.178 61.6398 39.3182C61.3216 39.4583 61.0735 39.6496 60.8955 39.892L58.708 39.5L59.2591 33.3636H66.3727V35.375H61.2875L60.9864 38.2898H61.0545C61.2591 38.0019 61.5678 37.7633 61.9807 37.5739C62.3936 37.3845 62.8557 37.2898 63.367 37.2898C64.0678 37.2898 64.6928 37.4545 65.242 37.7841C65.7913 38.1136 66.225 38.5663 66.5432 39.142C66.8614 39.714 67.0186 40.3731 67.0148 41.1193C67.0186 41.9034 66.8367 42.6004 66.4693 43.2102C66.1057 43.8163 65.5962 44.2936 64.9409 44.642C64.2894 44.9867 63.5318 45.1591 62.6682 45.1591ZM70.5291 43.4091L70.4666 44.0341C70.4173 44.5341 70.3227 45.0322 70.1825 45.5284C70.0461 46.0284 69.9022 46.4811 69.7507 46.8864C69.603 47.2917 69.4836 47.6098 69.3927 47.8409H67.8245C67.8814 47.6174 67.959 47.3049 68.0575 46.9034C68.156 46.5057 68.2488 46.0587 68.3359 45.5625C68.423 45.0663 68.478 44.5606 68.5007 44.0455L68.5291 43.4091H70.5291ZM76.3332 45.2557C75.3559 45.2519 74.515 45.0114 73.8105 44.5341C73.1097 44.0568 72.5699 43.3655 72.1911 42.4602C71.8161 41.5549 71.6305 40.4659 71.6343 39.1932C71.6343 37.9242 71.8218 36.8428 72.1968 35.9489C72.5756 35.0549 73.1154 34.375 73.8161 33.9091C74.5207 33.4394 75.3597 33.2045 76.3332 33.2045C77.3067 33.2045 78.1438 33.4394 78.8445 33.9091C79.5491 34.3788 80.0908 35.0606 80.4695 35.9545C80.8483 36.8447 81.0358 37.9242 81.032 39.1932C81.032 40.4697 80.8427 41.5606 80.4639 42.4659C80.0889 43.3712 79.551 44.0625 78.8502 44.5398C78.1495 45.017 77.3105 45.2557 76.3332 45.2557ZM76.3332 43.2159C76.9998 43.2159 77.532 42.8807 77.9298 42.2102C78.3275 41.5398 78.5245 40.5341 78.5207 39.1932C78.5207 38.3106 78.4298 37.5758 78.248 36.9886C78.0699 36.4015 77.8161 35.9602 77.4866 35.6648C77.1608 35.3693 76.7764 35.2216 76.3332 35.2216C75.6703 35.2216 75.14 35.553 74.7423 36.2159C74.3445 36.8788 74.1438 37.8712 74.14 39.1932C74.14 40.0871 74.229 40.8333 74.407 41.4318C74.5889 42.0265 74.8445 42.4735 75.1741 42.7727C75.5036 43.0682 75.89 43.2159 76.3332 43.2159ZM86.8688 45.2557C85.8915 45.2519 85.0506 45.0114 84.3461 44.5341C83.6453 44.0568 83.1056 43.3655 82.7268 42.4602C82.3518 41.5549 82.1662 40.4659 82.1699 39.1932C82.1699 37.9242 82.3574 36.8428 82.7324 35.9489C83.1112 35.0549 83.651 34.375 84.3518 33.9091C85.0563 33.4394 85.8953 33.2045 86.8688 33.2045C87.8423 33.2045 88.6794 33.4394 89.3802 33.9091C90.0847 34.3788 90.6264 35.0606 91.0052 35.9545C91.384 36.8447 91.5715 37.9242 91.5677 39.1932C91.5677 40.4697 91.3783 41.5606 90.9995 42.4659C90.6245 43.3712 90.0866 44.0625 89.3859 44.5398C88.6851 45.017 87.8461 45.2557 86.8688 45.2557ZM86.8688 43.2159C87.5355 43.2159 88.0677 42.8807 88.4654 42.2102C88.8631 41.5398 89.0601 40.5341 89.0563 39.1932C89.0563 38.3106 88.9654 37.5758 88.7836 36.9886C88.6056 36.4015 88.3518 35.9602 88.0222 35.6648C87.6965 35.3693 87.312 35.2216 86.8688 35.2216C86.2059 35.2216 85.6756 35.553 85.2779 36.2159C84.8802 36.8788 84.6794 37.8712 84.6756 39.1932C84.6756 40.0871 84.7646 40.8333 84.9427 41.4318C85.1245 42.0265 85.3802 42.4735 85.7097 42.7727C86.0393 43.0682 86.4256 43.2159 86.8688 43.2159ZM97.4044 45.2557C96.4272 45.2519 95.5863 45.0114 94.8817 44.5341C94.1809 44.0568 93.6412 43.3655 93.2624 42.4602C92.8874 41.5549 92.7018 40.4659 92.7056 39.1932C92.7056 37.9242 92.8931 36.8428 93.2681 35.9489C93.6469 35.0549 94.1866 34.375 94.8874 33.9091C95.5919 33.4394 96.4309 33.2045 97.4044 33.2045C98.3779 33.2045 99.215 33.4394 99.9158 33.9091C100.62 34.3788 101.162 35.0606 101.541 35.9545C101.92 36.8447 102.107 37.9242 102.103 39.1932C102.103 40.4697 101.914 41.5606 101.535 42.4659C101.16 43.3712 100.622 44.0625 99.9215 44.5398C99.2207 45.017 98.3817 45.2557 97.4044 45.2557ZM97.4044 43.2159C98.0711 43.2159 98.6033 42.8807 99.001 42.2102C99.3988 41.5398 99.5957 40.5341 99.5919 39.1932C99.5919 38.3106 99.501 37.5758 99.3192 36.9886C99.1412 36.4015 98.8874 35.9602 98.5578 35.6648C98.2321 35.3693 97.8476 35.2216 97.4044 35.2216C96.7416 35.2216 96.2113 35.553 95.8135 36.2159C95.4158 36.8788 95.215 37.8712 95.2113 39.1932C95.2113 40.0871 95.3003 40.8333 95.4783 41.4318C95.6601 42.0265 95.9158 42.4735 96.2453 42.7727C96.5749 43.0682 96.9613 43.2159 97.4044 43.2159Z" fill="#122231"/>
<path d="M17.4588 55.7273V63H16.358V56.8281H16.3153L14.5753 57.9645V56.9134L16.3899 55.7273H17.4588ZM19.1261 63V62.2045L21.5871 59.6548C21.8499 59.3778 22.0665 59.1352 22.2369 58.9268C22.4098 58.7161 22.5388 58.5161 22.624 58.3267C22.7092 58.1373 22.7518 57.9361 22.7518 57.723C22.7518 57.4815 22.695 57.2732 22.5814 57.098C22.4678 56.9205 22.3127 56.7843 22.1162 56.6896C21.9197 56.5926 21.6983 56.544 21.4521 56.544C21.1917 56.544 20.9644 56.5973 20.7703 56.7038C20.5762 56.8104 20.427 56.9607 20.3229 57.1548C20.2187 57.349 20.1666 57.5762 20.1666 57.8366H19.119C19.119 57.3939 19.2208 57.0069 19.4244 56.6754C19.628 56.344 19.9074 56.0871 20.2625 55.9048C20.6176 55.7202 21.0213 55.6278 21.4734 55.6278C21.9304 55.6278 22.3328 55.719 22.6808 55.9013C23.0312 56.0812 23.3046 56.3274 23.5011 56.6399C23.6976 56.95 23.7959 57.3004 23.7959 57.6911C23.7959 57.9609 23.745 58.2249 23.6432 58.483C23.5438 58.741 23.3697 59.0286 23.1212 59.3459C22.8726 59.6607 22.5269 60.0431 22.0842 60.4929L20.6389 62.0057V62.0589H23.9131V63H19.1261ZM28.7551 61.6364V61.2528C28.7551 60.9782 28.8119 60.7273 28.9256 60.5C29.0416 60.2704 29.2097 60.0869 29.4298 59.9496C29.6524 59.8099 29.9211 59.7401 30.2359 59.7401C30.5579 59.7401 30.8278 59.8087 31.0456 59.946C31.2634 60.0833 31.4279 60.2668 31.5392 60.4964C31.6528 60.7261 31.7097 60.9782 31.7097 61.2528V61.6364C31.7097 61.911 31.6528 62.1631 31.5392 62.3928C31.4256 62.62 31.2587 62.8035 31.0385 62.9432C30.8207 63.0805 30.5532 63.1491 30.2359 63.1491C29.9163 63.1491 29.6464 63.0805 29.4263 62.9432C29.2061 62.8035 29.0392 62.62 28.9256 62.3928C28.8119 62.1631 28.7551 61.911 28.7551 61.6364ZM29.5825 61.2528V61.6364C29.5825 61.84 29.6311 62.0246 29.7281 62.1903C29.8252 62.3561 29.9945 62.4389 30.2359 62.4389C30.475 62.4389 30.642 62.3561 30.7366 62.1903C30.8313 62.0246 30.8787 61.84 30.8787 61.6364V61.2528C30.8787 61.0492 30.8325 60.8646 30.7402 60.6989C30.6502 60.5331 30.4821 60.4503 30.2359 60.4503C29.9992 60.4503 29.8311 60.5331 29.7317 60.6989C29.6322 60.8646 29.5825 61.0492 29.5825 61.2528ZM25.0974 57.4744V57.0909C25.0974 56.8163 25.1543 56.5642 25.2679 56.3345C25.3839 56.1049 25.552 55.9214 25.7722 55.7841C25.9947 55.6468 26.2634 55.5781 26.5783 55.5781C26.9002 55.5781 27.1701 55.6468 27.3879 55.7841C27.6057 55.9214 27.7703 56.1049 27.8815 56.3345C27.9928 56.5642 28.0484 56.8163 28.0484 57.0909V57.4744C28.0484 57.7491 27.9916 58.0012 27.878 58.2308C27.7667 58.4581 27.601 58.6416 27.3808 58.7812C27.163 58.9186 26.8955 58.9872 26.5783 58.9872C26.2563 58.9872 25.9852 58.9186 25.7651 58.7812C25.5473 58.6416 25.3815 58.4581 25.2679 58.2308C25.1543 58.0012 25.0974 57.7491 25.0974 57.4744ZM25.9284 57.0909V57.4744C25.9284 57.678 25.9758 57.8627 26.0705 58.0284C26.1675 58.1941 26.3368 58.277 26.5783 58.277C26.815 58.277 26.9807 58.1941 27.0754 58.0284C27.1725 57.8627 27.221 57.678 27.221 57.4744V57.0909C27.221 56.8873 27.1749 56.7027 27.0825 56.5369C26.9902 56.3712 26.8221 56.2884 26.5783 56.2884C26.3415 56.2884 26.1734 56.3712 26.074 56.5369C25.9769 56.7027 25.9284 56.8873 25.9284 57.0909ZM25.4348 63L30.4348 55.7273H31.2835L26.2835 63H25.4348ZM35.3009 63V57.5455H36.3627V63H35.3009ZM35.8371 56.7038C35.6524 56.7038 35.4938 56.6423 35.3613 56.5192C35.231 56.3937 35.1659 56.2446 35.1659 56.0717C35.1659 55.8965 35.231 55.7474 35.3613 55.6243C35.4938 55.4988 35.6524 55.4361 35.8371 55.4361C36.0218 55.4361 36.1792 55.4988 36.3094 55.6243C36.442 55.7474 36.5083 55.8965 36.5083 56.0717C36.5083 56.2446 36.442 56.3937 36.3094 56.5192C36.1792 56.6423 36.0218 56.7038 35.8371 56.7038ZM38.5529 59.7614V63H37.4911V57.5455H38.5103V58.4332H38.5778C38.7032 58.1444 38.8997 57.9124 39.1673 57.7372C39.4371 57.562 39.7769 57.4744 40.1864 57.4744C40.5581 57.4744 40.8836 57.5526 41.163 57.7088C41.4424 57.8627 41.659 58.0923 41.8129 58.3977C41.9667 58.7031 42.0437 59.0807 42.0437 59.5305V63H40.9819V59.6584C40.9819 59.263 40.8789 58.9541 40.6729 58.7315C40.467 58.5066 40.1841 58.3942 39.8242 58.3942C39.578 58.3942 39.359 58.4474 39.1673 58.554C38.9779 58.6605 38.8275 58.8168 38.7163 59.0227C38.6074 59.2263 38.5529 59.4725 38.5529 59.7614ZM45.7139 57.5455V58.3977H42.7344V57.5455H45.7139ZM43.5335 56.2386H44.5952V61.3984C44.5952 61.6044 44.626 61.7595 44.6876 61.8636C44.7491 61.9654 44.8284 62.0353 44.9255 62.0732C45.0249 62.1087 45.1326 62.1264 45.2487 62.1264C45.3339 62.1264 45.4085 62.1205 45.4724 62.1087C45.5363 62.0968 45.586 62.0874 45.6215 62.0803L45.8133 62.9574C45.7517 62.9811 45.6641 63.0047 45.5505 63.0284C45.4369 63.0545 45.2948 63.0687 45.1244 63.071C44.845 63.0758 44.5846 63.026 44.3431 62.9219C44.1016 62.8177 43.9063 62.6567 43.7572 62.4389C43.608 62.2211 43.5335 61.9477 43.5335 61.6186V56.2386ZM48.8806 63.1101C48.3432 63.1101 47.8804 62.9953 47.4922 62.7656C47.1063 62.5336 46.808 62.2081 46.5973 61.7891C46.3889 61.3677 46.2848 60.8741 46.2848 60.3082C46.2848 59.7495 46.3889 59.2571 46.5973 58.831C46.808 58.4048 47.1015 58.0722 47.4779 57.8331C47.8567 57.594 48.2994 57.4744 48.8061 57.4744C49.1138 57.4744 49.4121 57.5253 49.701 57.6271C49.9898 57.7289 50.249 57.8887 50.4787 58.1065C50.7083 58.3243 50.8894 58.6072 51.022 58.9553C51.1546 59.3009 51.2208 59.7211 51.2208 60.2159V60.5923H46.8849V59.7969H50.1804C50.1804 59.5175 50.1235 59.2701 50.0099 59.0547C49.8963 58.8369 49.7365 58.6652 49.5305 58.5398C49.3269 58.4143 49.0878 58.3516 48.8132 58.3516C48.5149 58.3516 48.2545 58.425 48.0319 58.5717C47.8118 58.7161 47.6413 58.9055 47.5206 59.1399C47.4022 59.3719 47.343 59.6241 47.343 59.8963V60.5178C47.343 60.8823 47.4069 61.1925 47.5348 61.4482C47.665 61.7038 47.8461 61.8991 48.0781 62.0341C48.3101 62.1667 48.5812 62.233 48.8913 62.233C49.0925 62.233 49.276 62.2045 49.4417 62.1477C49.6074 62.0885 49.7507 62.0009 49.8714 61.8849C49.9922 61.7689 50.0845 61.6257 50.1484 61.4553L51.1534 61.6364C51.0729 61.9323 50.9285 62.1915 50.7201 62.4141C50.5142 62.6342 50.2549 62.8059 49.9424 62.929C49.6323 63.0497 49.2784 63.1101 48.8806 63.1101ZM52.0989 63V57.5455H53.1252V58.4119H53.182C53.2815 58.1184 53.4567 57.8875 53.7076 57.7195C53.9609 57.549 54.2474 57.4638 54.567 57.4638C54.6333 57.4638 54.7114 57.4661 54.8013 57.4709C54.8937 57.4756 54.9659 57.4815 55.018 57.4886V58.5043C54.9754 58.4924 54.8996 58.4794 54.7907 58.4652C54.6818 58.4486 54.5729 58.4403 54.464 58.4403C54.213 58.4403 53.9893 58.4936 53.7928 58.6001C53.5987 58.7043 53.4448 58.8499 53.3312 59.0369C53.2175 59.2216 53.1607 59.4323 53.1607 59.669V63H52.0989ZM57.7924 63.1101C57.255 63.1101 56.7921 62.9953 56.4039 62.7656C56.018 62.5336 55.7197 62.2081 55.509 61.7891C55.3007 61.3677 55.1965 60.8741 55.1965 60.3082C55.1965 59.7495 55.3007 59.2571 55.509 58.831C55.7197 58.4048 56.0132 58.0722 56.3897 57.8331C56.7685 57.594 57.2112 57.4744 57.7178 57.4744C58.0256 57.4744 58.3239 57.5253 58.6127 57.6271C58.9015 57.7289 59.1607 57.8887 59.3904 58.1065C59.62 58.3243 59.8011 58.6072 59.9337 58.9553C60.0663 59.3009 60.1326 59.7211 60.1326 60.2159V60.5923H55.7966V59.7969H59.0921C59.0921 59.5175 59.0353 59.2701 58.9216 59.0547C58.808 58.8369 58.6482 58.6652 58.4422 58.5398C58.2386 58.4143 57.9995 58.3516 57.7249 58.3516C57.4266 58.3516 57.1662 58.425 56.9436 58.5717C56.7235 58.7161 56.553 58.9055 56.4323 59.1399C56.3139 59.3719 56.2547 59.6241 56.2547 59.8963V60.5178C56.2547 60.8823 56.3186 61.1925 56.4465 61.4482C56.5767 61.7038 56.7578 61.8991 56.9898 62.0341C57.2218 62.1667 57.4929 62.233 57.803 62.233C58.0042 62.233 58.1877 62.2045 58.3534 62.1477C58.5192 62.0885 58.6624 62.0009 58.7831 61.8849C58.9039 61.7689 58.9962 61.6257 59.0601 61.4553L60.0651 61.6364C59.9846 61.9323 59.8402 62.1915 59.6319 62.4141C59.4259 62.6342 59.1667 62.8059 58.8542 62.929C58.544 63.0497 58.1901 63.1101 57.7924 63.1101ZM65.098 58.8771L64.1357 59.0476C64.0954 58.9245 64.0315 58.8073 63.9439 58.696C63.8587 58.5848 63.7427 58.4936 63.5959 58.4226C63.4491 58.3516 63.2656 58.3161 63.0455 58.3161C62.7448 58.3161 62.4938 58.3835 62.2926 58.5185C62.0914 58.651 61.9908 58.8227 61.9908 59.0334C61.9908 59.2157 62.0582 59.3625 62.1932 59.4737C62.3281 59.585 62.5459 59.6761 62.8466 59.7472L63.7131 59.946C64.215 60.062 64.589 60.2408 64.8352 60.4822C65.0814 60.7237 65.2045 61.0374 65.2045 61.4233C65.2045 61.75 65.1098 62.0412 64.9205 62.2969C64.7334 62.5502 64.4718 62.7491 64.1357 62.8935C63.8018 63.0379 63.4148 63.1101 62.9744 63.1101C62.3636 63.1101 61.8653 62.9799 61.4794 62.7195C61.0935 62.4567 60.8568 62.0838 60.7692 61.6009L61.7955 61.4446C61.8594 61.7121 61.9908 61.9145 62.1896 62.0518C62.3885 62.1868 62.6477 62.2543 62.9673 62.2543C63.3153 62.2543 63.5935 62.1821 63.8018 62.0376C64.0102 61.8909 64.1143 61.7121 64.1143 61.5014C64.1143 61.331 64.0504 61.1877 63.9226 61.0717C63.7971 60.9557 63.6042 60.8681 63.3438 60.8089L62.4205 60.6065C61.9115 60.4905 61.535 60.3059 61.2912 60.0526C61.0497 59.7992 60.929 59.4785 60.929 59.0902C60.929 58.7682 61.0189 58.4865 61.1989 58.245C61.3788 58.0036 61.6274 57.8153 61.9446 57.6804C62.2618 57.5431 62.6252 57.4744 63.0348 57.4744C63.6243 57.4744 64.0883 57.6023 64.4268 57.858C64.7654 58.1113 64.9891 58.451 65.098 58.8771ZM68.6181 57.5455V58.3977H65.6387V57.5455H68.6181ZM66.4377 56.2386H67.4995V61.3984C67.4995 61.6044 67.5303 61.7595 67.5919 61.8636C67.6534 61.9654 67.7327 62.0353 67.8298 62.0732C67.9292 62.1087 68.0369 62.1264 68.1529 62.1264C68.2382 62.1264 68.3127 62.1205 68.3767 62.1087C68.4406 62.0968 68.4903 62.0874 68.5258 62.0803L68.7176 62.9574C68.656 62.9811 68.5684 63.0047 68.4548 63.0284C68.3412 63.0545 68.1991 63.0687 68.0287 63.071C67.7493 63.0758 67.4889 63.026 67.2474 62.9219C67.0059 62.8177 66.8106 62.6567 66.6615 62.4389C66.5123 62.2211 66.4377 61.9477 66.4377 61.6186V56.2386ZM71.8392 63V57.5455H72.8654V58.4119H72.9223C73.0217 58.1184 73.1969 57.8875 73.4478 57.7195C73.7011 57.549 73.9876 57.4638 74.3072 57.4638C74.3735 57.4638 74.4516 57.4661 74.5416 57.4709C74.6339 57.4756 74.7061 57.4815 74.7582 57.4886V58.5043C74.7156 58.4924 74.6398 58.4794 74.5309 58.4652C74.422 58.4486 74.3131 58.4403 74.2042 58.4403C73.9533 58.4403 73.7296 58.4936 73.5331 58.6001C73.3389 58.7043 73.185 58.8499 73.0714 59.0369C72.9578 59.2216 72.901 59.4323 72.901 59.669V63H71.8392ZM76.9156 63.1207C76.5699 63.1207 76.2574 63.0568 75.9781 62.929C75.6987 62.7988 75.4774 62.6106 75.314 62.3643C75.153 62.1181 75.0725 61.8163 75.0725 61.4588C75.0725 61.151 75.1317 60.8977 75.2501 60.6989C75.3685 60.5 75.5283 60.3426 75.7295 60.2266C75.9307 60.1106 76.1556 60.023 76.4042 59.9638C76.6528 59.9046 76.9061 59.8596 77.1642 59.8288C77.4909 59.791 77.756 59.7602 77.9596 59.7365C78.1632 59.7105 78.3112 59.669 78.4035 59.6122C78.4958 59.5554 78.542 59.4631 78.542 59.3352V59.3104C78.542 59.0002 78.4544 58.7599 78.2792 58.5895C78.1064 58.419 77.8484 58.3338 77.5051 58.3338C77.1476 58.3338 76.8659 58.4131 76.6599 58.5717C76.4563 58.728 76.3154 58.902 76.2373 59.0938L75.2395 58.8665C75.3578 58.535 75.5306 58.2675 75.7579 58.0639C75.9876 57.858 76.2515 57.7088 76.5498 57.6165C76.8481 57.5218 77.1618 57.4744 77.4909 57.4744C77.7087 57.4744 77.9395 57.5005 78.1833 57.5526C78.4296 57.6023 78.6592 57.6946 78.8723 57.8295C79.0877 57.9645 79.2641 58.1574 79.4014 58.4084C79.5387 58.657 79.6074 58.9801 79.6074 59.3778V63H78.5704V62.2543H78.5278C78.4591 62.3916 78.3562 62.5265 78.2189 62.6591C78.0815 62.7917 77.9052 62.9018 77.6897 62.9893C77.4743 63.0769 77.2163 63.1207 76.9156 63.1207ZM77.1464 62.2685C77.44 62.2685 77.6909 62.2105 77.8993 62.0945C78.11 61.9785 78.2698 61.8269 78.3787 61.6399C78.4899 61.4505 78.5456 61.2481 78.5456 61.0327V60.3295C78.5077 60.3674 78.4343 60.4029 78.3254 60.4361C78.2189 60.4669 78.0969 60.4941 77.9596 60.5178C77.8223 60.5391 77.6886 60.5592 77.5583 60.5781C77.4281 60.5947 77.3192 60.6089 77.2316 60.6207C77.0257 60.6468 76.8375 60.6906 76.667 60.7521C76.4989 60.8137 76.364 60.9025 76.2622 61.0185C76.1627 61.1321 76.113 61.2836 76.113 61.473C76.113 61.7358 76.2101 61.9347 76.4042 62.0696C76.5984 62.2022 76.8457 62.2685 77.1464 62.2685ZM83.2678 57.5455V58.3977H80.2884V57.5455H83.2678ZM81.0874 56.2386H82.1491V61.3984C82.1491 61.6044 82.1799 61.7595 82.2415 61.8636C82.303 61.9654 82.3823 62.0353 82.4794 62.0732C82.5788 62.1087 82.6866 62.1264 82.8026 62.1264C82.8878 62.1264 82.9624 62.1205 83.0263 62.1087C83.0902 62.0968 83.1399 62.0874 83.1754 62.0803L83.3672 62.9574C83.3056 62.9811 83.218 63.0047 83.1044 63.0284C82.9908 63.0545 82.8487 63.0687 82.6783 63.071C82.3989 63.0758 82.1385 63.026 81.897 62.9219C81.6555 62.8177 81.4602 62.6567 81.3111 62.4389C81.1619 62.2211 81.0874 61.9477 81.0874 61.6186V56.2386ZM86.4345 63.1101C85.8971 63.1101 85.4343 62.9953 85.0461 62.7656C84.6602 62.5336 84.3619 62.2081 84.1512 61.7891C83.9428 61.3677 83.8387 60.8741 83.8387 60.3082C83.8387 59.7495 83.9428 59.2571 84.1512 58.831C84.3619 58.4048 84.6554 58.0722 85.0319 57.8331C85.4106 57.594 85.8533 57.4744 86.36 57.4744C86.6677 57.4744 86.966 57.5253 87.2549 57.6271C87.5437 57.7289 87.8029 57.8887 88.0326 58.1065C88.2622 58.3243 88.4433 58.6072 88.5759 58.9553C88.7085 59.3009 88.7747 59.7211 88.7747 60.2159V60.5923H84.4388V59.7969H87.7343C87.7343 59.5175 87.6774 59.2701 87.5638 59.0547C87.4502 58.8369 87.2904 58.6652 87.0844 58.5398C86.8808 58.4143 86.6417 58.3516 86.3671 58.3516C86.0688 58.3516 85.8084 58.425 85.5858 58.5717C85.3657 58.7161 85.1952 58.9055 85.0745 59.1399C84.9561 59.3719 84.8969 59.6241 84.8969 59.8963V60.5178C84.8969 60.8823 84.9608 61.1925 85.0887 61.4482C85.2189 61.7038 85.4 61.8991 85.632 62.0341C85.864 62.1667 86.1351 62.233 86.4452 62.233C86.6464 62.233 86.8299 62.2045 86.9956 62.1477C87.1613 62.0885 87.3046 62.0009 87.4253 61.8849C87.5461 61.7689 87.6384 61.6257 87.7023 61.4553L88.7073 61.6364C88.6268 61.9323 88.4824 62.1915 88.274 62.4141C88.0681 62.6342 87.8088 62.8059 87.4963 62.929C87.1862 63.0497 86.8323 63.1101 86.4345 63.1101Z" fill="#122231"/>
<rect x="151" y="17" width="40" height="40" rx="12" fill="#FFECE3"/>
<path d="M161 36L171 30L181 36" stroke="#FF4E00" stroke-width="2"/>
<path d="M163 35V45C163 46.1046 163.895 47 165 47H177C178.105 47 179 46.1046 179 45V35" stroke="#FF4E00" stroke-width="2"/>
<circle cx="171" cy="40" r="2" stroke="#FF4E00" stroke-width="2"/>
<path d="M167 48V47C167 44.7909 168.791 43 171 43V43C173.209 43 175 44.7909 175 47V48" stroke="#FF4E00" stroke-width="2"/>
</svg>
